<?xml version="1.0" encoding="utf-8"?>
<!-- Generator: Adobe Illustrator 16.0.0, SVG Export Plug-In . SVG Version: 6.00 Build 0)  -->
<!DOCTYPE svg PUBLIC "-//W3C//DTD SVG 1.1//EN" "http://www.w3.org/Graphics/SVG/1.1/DTD/svg11.dtd">
<svg version="1.1" id="Layer_1" xmlns="http://www.w3.org/2000/svg" xmlns:xlink="http://www.w3.org/1999/xlink" x="0px" y="0px"
	 width="425px" height="425px" viewBox="0 0 425 425" enable-background="new 0 0 425 425" xml:space="preserve">
<g>
	<path opacity="0.3" fill="#FFFFFF" d="M122.26,323.941c0,10.359-8.365,18.752-18.686,18.752c-10.322,0-18.688-8.393-18.688-18.752
		c0-10.35,8.365-18.742,18.688-18.742C113.895,305.199,122.26,313.592,122.26,323.941z"/>
	<ellipse opacity="0.3" fill="#FFFFFF" cx="109.965" cy="336.77" rx="18.688" ry="18.746"/>
	<ellipse opacity="0.3" fill="#FFFFFF" cx="93.982" cy="317.531" rx="18.688" ry="18.746"/>
	<path opacity="0.3" fill="#FFFFFF" d="M115.869,78.63c0,10.353-8.367,18.745-18.693,18.745c-10.314,0-18.682-8.393-18.682-18.745
		c0-10.354,8.367-18.748,18.682-18.748C107.502,59.882,115.869,68.276,115.869,78.63z"/>
	<path opacity="0.3" fill="#FFFFFF" d="M99.887,75.418c0,10.359-8.367,18.751-18.691,18.751c-10.316,0-18.684-8.392-18.684-18.751
		c0-10.349,8.367-18.742,18.684-18.742C91.52,56.676,99.887,65.07,99.887,75.418z"/>
	<path opacity="0.3" fill="#FFFFFF" d="M143.936,48.863c0,10.358-8.365,18.752-18.688,18.752c-10.32,0-18.686-8.394-18.686-18.752
		c0-10.349,8.365-18.742,18.686-18.742C135.57,30.121,143.936,38.514,143.936,48.863z"/>
	<path opacity="0.3" fill="#FFFFFF" d="M155.826,38.544c0,10.354-8.367,18.747-18.691,18.747c-10.316,0-18.684-8.393-18.684-18.747
		c0-10.354,8.367-18.746,18.684-18.746C147.459,19.798,155.826,28.191,155.826,38.544z"/>
	<ellipse opacity="0.3" fill="#FFFFFF" cx="90.786" cy="359.219" rx="18.687" ry="18.748"/>
	<ellipse opacity="0.3" fill="#FFFFFF" cx="42.838" cy="192.465" rx="18.688" ry="18.748"/>
	<ellipse opacity="0.3" fill="#FFFFFF" cx="66.312" cy="77.626" rx="18.687" ry="18.747"/>
	<ellipse opacity="0.3" fill="#FFFFFF" cx="149.922" cy="64.197" rx="18.688" ry="18.746"/>
	<path opacity="0.3" fill="#FFFFFF" d="M198.979,27.319c0,10.357-8.367,18.749-18.686,18.749c-10.32,0-18.689-8.392-18.689-18.749
		c0-10.351,8.369-18.743,18.689-18.743C190.611,8.576,198.979,16.968,198.979,27.319z"/>
	<ellipse opacity="0.3" fill="#FFFFFF" cx="283.778" cy="42.651" rx="18.687" ry="18.747"/>
	<ellipse opacity="0.3" fill="#FFFFFF" cx="394.056" cy="199.399" rx="18.687" ry="18.746"/>
	<path opacity="0.3" fill="#FFFFFF" d="M115.869,230.949c0,10.354-8.367,18.748-18.693,18.748c-10.314,0-18.682-8.395-18.682-18.748
		s8.367-18.747,18.682-18.747C107.502,212.203,115.869,220.596,115.869,230.949z"/>
	<ellipse opacity="0.3" fill="#FFFFFF" cx="269.794" cy="89.852" rx="18.687" ry="18.747"/>
	<ellipse opacity="0.3" fill="#FFFFFF" cx="263.4" cy="287.066" rx="18.688" ry="18.748"/>
	<path opacity="0.3" fill="#FFFFFF" d="M309.258,203.69c0,10.357-8.365,18.75-18.686,18.75c-10.322,0-18.688-8.393-18.688-18.75
		c0-10.352,8.365-18.744,18.688-18.744C300.893,184.946,309.258,193.338,309.258,203.69z"/>
	<ellipse opacity="0.3" fill="#FFFFFF" cx="156.317" cy="392.887" rx="18.687" ry="18.748"/>
	<path opacity="0.3" fill="#FFFFFF" d="M85.498,155.587c0,10.357-8.365,18.752-18.686,18.752c-10.322,0-18.688-8.395-18.688-18.752
		c0-10.349,8.365-18.742,18.688-18.742C77.133,136.845,85.498,145.239,85.498,155.587z"/>
	<ellipse opacity="0.3" fill="#FFFFFF" cx="300.164" cy="266.223" rx="18.688" ry="18.748"/>
	<ellipse opacity="0.3" fill="#FFFFFF" cx="181.887" cy="319.135" rx="18.688" ry="18.748"/>
	<ellipse opacity="0.3" fill="#FFFFFF" cx="119.557" cy="370.443" rx="18.688" ry="18.746"/>
	<path opacity="0.3" fill="#FFFFFF" d="M90.396,336.469c0,10.357-8.365,18.75-18.691,18.75c-10.316,0-18.684-8.393-18.684-18.75
		c0-10.352,8.367-18.742,18.684-18.742C82.031,317.727,90.396,326.117,90.396,336.469z"/>
	<ellipse opacity="0.3" fill="#FFFFFF" cx="213.854" cy="28.422" rx="18.687" ry="18.745"/>
	<path opacity="0.3" fill="#FFFFFF" d="M120.359,163.604c0,14.618-11.807,26.463-26.377,26.463
		c-14.568,0-26.375-11.845-26.375-26.463c0-14.612,11.807-26.458,26.375-26.458C108.553,137.146,120.359,148.992,120.359,163.604z"
		/>
	<path opacity="0.3" fill="#FFFFFF" d="M105.975,195.672c0,14.617-11.811,26.462-26.375,26.462
		c-14.566,0-26.379-11.845-26.379-26.462c0-14.612,11.813-26.457,26.379-26.457C94.164,169.215,105.975,181.06,105.975,195.672z"/>
	<path opacity="0.3" fill="#FFFFFF" d="M101.182,211.707c0,14.618-11.809,26.461-26.379,26.461
		c-14.566,0-26.377-11.844-26.377-26.461c0-14.613,11.811-26.459,26.377-26.459C89.373,185.248,101.182,197.093,101.182,211.707z"/>
	<path opacity="0.3" fill="#FFFFFF" d="M105.975,269.43c0,14.617-11.811,26.461-26.375,26.461
		c-14.566,0-26.379-11.844-26.379-26.461c0-14.613,11.813-26.463,26.379-26.463C94.164,242.967,105.975,254.816,105.975,269.43z"/>
	<path opacity="0.3" fill="#FFFFFF" d="M96.385,303.102c0,14.613-11.807,26.463-26.377,26.463c-14.566,0-26.373-11.85-26.373-26.463
		c0-14.617,11.807-26.461,26.373-26.461C84.578,276.641,96.385,288.484,96.385,303.102z"/>
	<path opacity="0.3" fill="#FFFFFF" d="M104.377,296.686c0,14.617-11.809,26.461-26.379,26.461
		c-14.566,0-26.373-11.844-26.373-26.461c0-14.613,11.807-26.457,26.373-26.457C92.568,270.229,104.377,282.072,104.377,296.686z"/>
	<path opacity="0.3" fill="#FFFFFF" d="M62.621,160.899c0,14.617-11.807,26.463-26.377,26.463
		c-14.566,0-26.375-11.846-26.375-26.463c0-14.612,11.809-26.456,26.375-26.456C50.814,134.443,62.621,146.287,62.621,160.899z"/>
	<path opacity="0.3" fill="#FFFFFF" d="M129.951,83.437c0,14.616-11.813,26.461-26.377,26.461
		c-14.566,0-26.379-11.845-26.379-26.461c0-14.614,11.813-26.459,26.379-26.459C118.139,56.978,129.951,68.823,129.951,83.437z"/>
	<ellipse opacity="0.3" fill="#FFFFFF" cx="74.804" cy="102.679" rx="26.378" ry="26.462"/>
	<ellipse opacity="0.3" fill="#FFFFFF" cx="63.616" cy="206.899" rx="26.378" ry="26.462"/>
	<path opacity="0.3" fill="#FFFFFF" d="M380.881,136.347c0,14.618-11.809,26.462-26.379,26.462
		c-14.566,0-26.377-11.844-26.377-26.462c0-14.611,11.811-26.457,26.377-26.457C369.072,109.89,380.881,121.736,380.881,136.347z"/>
	<path opacity="0.3" fill="#FFFFFF" d="M245.027,319.135c0,14.615-11.809,26.461-26.379,26.461
		c-14.566,0-26.377-11.846-26.377-26.461c0-14.617,11.811-26.461,26.377-26.461C233.219,292.674,245.027,304.518,245.027,319.135z"
		/>
	<path opacity="0.3" fill="#FFFFFF" d="M86.498,297.99c0,14.615-11.813,26.461-26.377,26.461c-14.568,0-26.379-11.846-26.379-26.461
		c0-14.613,11.811-26.463,26.379-26.463C74.686,271.527,86.498,283.377,86.498,297.99z"/>
	<path opacity="0.3" fill="#FFFFFF" d="M259.41,386.875c0,14.617-11.809,26.463-26.379,26.463
		c-14.566,0-26.373-11.846-26.373-26.463c0-14.611,11.807-26.457,26.373-26.457C247.602,360.418,259.41,372.264,259.41,386.875z"/>
	<path opacity="0.3" fill="#FFFFFF" d="M161.916,323.941c0,14.617-11.813,26.463-26.377,26.463
		c-14.566,0-26.377-11.846-26.377-26.463c0-14.611,11.811-26.457,26.377-26.457C150.104,297.484,161.916,309.33,161.916,323.941z"/>
	<path opacity="0.3" fill="#FFFFFF" d="M88.395,121.919c0,14.613-11.807,26.462-26.379,26.462
		c-14.566,0-26.373-11.849-26.373-26.462c0-14.612,11.807-26.462,26.373-26.462C76.588,95.458,88.395,107.307,88.395,121.919z"/>
	<path opacity="0.3" fill="#FFFFFF" d="M144.334,72.214c0,14.615-11.807,26.461-26.377,26.461
		c-14.568,0-26.375-11.846-26.375-26.461c0-14.613,11.807-26.46,26.375-26.46C132.527,45.754,144.334,57.601,144.334,72.214z"/>
	<path opacity="0.3" fill="#FFFFFF" d="M187.486,158.798c0,14.612-11.807,26.461-26.377,26.461
		c-14.566,0-26.375-11.849-26.375-26.461c0-14.618,11.809-26.461,26.375-26.461C175.68,132.337,187.486,144.18,187.486,158.798z"/>
	<path opacity="0.3" fill="#FFFFFF" d="M163.514,107.487c0,14.617-11.809,26.463-26.379,26.463
		c-14.566,0-26.375-11.846-26.375-26.463c0-14.613,11.809-26.458,26.375-26.458C151.705,81.029,163.514,92.874,163.514,107.487z"/>
	<path opacity="0.3" fill="#FFFFFF" d="M58.436,263.031c0,14.615-11.811,26.463-26.377,26.463c-14.57,0-26.379-11.848-26.379-26.463
		c0-14.611,11.809-26.461,26.379-26.461C46.625,236.57,58.436,248.42,58.436,263.031z"/>
	<ellipse opacity="0.3" fill="#FFFFFF" cx="63.616" cy="293.48" rx="26.378" ry="26.461"/>
	<path opacity="0.3" fill="#FFFFFF" d="M166.713,351.203c0,14.613-11.813,26.461-26.379,26.461
		c-14.57,0-26.377-11.848-26.377-26.461c0-14.617,11.807-26.463,26.377-26.463C154.9,324.74,166.713,336.586,166.713,351.203z"/>
	<path opacity="0.3" fill="#FFFFFF" d="M312.152,245.379c0,14.617-11.805,26.461-26.375,26.461
		c-14.568,0-26.375-11.844-26.375-26.461c0-14.613,11.807-26.461,26.375-26.461C300.348,218.918,312.152,230.766,312.152,245.379z"
		/>
	<path opacity="0.3" fill="#FFFFFF" d="M342.523,216.516c0,14.617-11.811,26.463-26.377,26.463
		c-14.57,0-26.379-11.846-26.379-26.463c0-14.611,11.809-26.456,26.379-26.456C330.713,190.06,342.523,201.905,342.523,216.516z"/>
	<ellipse opacity="0.3" fill="#FFFFFF" cx="106.769" cy="288.668" rx="26.378" ry="26.463"/>
	<path opacity="0.3" fill="#FFFFFF" d="M269.002,187.656c0,14.616-11.809,26.461-26.379,26.461
		c-14.564,0-26.379-11.845-26.379-26.461c0-14.613,11.814-26.459,26.379-26.459C257.193,161.197,269.002,173.042,269.002,187.656z"
		/>
	<ellipse opacity="0.3" fill="#FFFFFF" cx="175.497" cy="264.619" rx="26.378" ry="26.461"/>
	<ellipse opacity="0.3" fill="#FFFFFF" cx="303.359" cy="107.487" rx="26.377" ry="26.463"/>
	<path opacity="0.3" fill="#FFFFFF" d="M310.559,309.512c0,14.617-11.813,26.465-26.379,26.465
		c-14.57,0-26.377-11.848-26.377-26.465c0-14.611,11.807-26.461,26.377-26.461C298.746,283.051,310.559,294.9,310.559,309.512z"/>
	<ellipse opacity="0.3" fill="#FFFFFF" cx="322.537" cy="255" rx="26.379" ry="26.463"/>
	<path opacity="0.3" fill="#FFFFFF" d="M120.359,235.756c0,14.617-11.807,26.463-26.377,26.463
		c-14.568,0-26.375-11.846-26.375-26.463c0-14.611,11.807-26.458,26.375-26.458C108.553,209.298,120.359,221.145,120.359,235.756z"
		/>
	<ellipse opacity="0.3" fill="#FFFFFF" cx="203.767" cy="389.381" rx="26.378" ry="26.463"/>
	<path opacity="0.3" fill="#FFFFFF" d="M414.445,248.584c0,14.617-11.811,26.463-26.377,26.463
		c-14.572,0-26.379-11.846-26.379-26.463c0-14.611,11.807-26.459,26.379-26.459C402.635,222.125,414.445,233.973,414.445,248.584z"
		/>
	<path opacity="0.3" fill="#FFFFFF" d="M304.162,216.516c0,14.617-11.807,26.463-26.377,26.463
		c-14.566,0-26.375-11.846-26.375-26.463c0-14.611,11.809-26.456,26.375-26.456C292.355,190.06,304.162,201.905,304.162,216.516z"/>
	<path opacity="0.3" fill="#FFFFFF" d="M408.051,187.656c0,14.616-11.809,26.461-26.379,26.461
		c-14.564,0-26.373-11.845-26.373-26.461c0-14.613,11.809-26.459,26.373-26.459C396.242,161.197,408.051,173.042,408.051,187.656z"
		/>
	<ellipse opacity="0.3" fill="#FFFFFF" cx="44.336" cy="153.384" rx="26.379" ry="26.462"/>
	<path opacity="0.3" fill="#FFFFFF" d="M289.279,32.83c0,14.616-11.811,26.462-26.375,26.462c-14.568,0-26.379-11.846-26.379-26.462
		c0-14.613,11.811-26.457,26.379-26.457C277.469,6.373,289.279,18.216,289.279,32.83z"/>
	<ellipse opacity="0.3" fill="#FFFFFF" cx="252.913" cy="26.315" rx="26.378" ry="26.462"/>
	<path opacity="0.3" fill="#FFFFFF" d="M370.891,81.933c0,14.617-11.807,26.461-26.377,26.461
		c-14.566,0-26.379-11.844-26.379-26.461c0-14.613,11.813-26.458,26.379-26.458C359.084,55.475,370.891,67.32,370.891,81.933z"/>
	<ellipse opacity="0.3" fill="#FFFFFF" cx="391.962" cy="163.906" rx="26.378" ry="26.462"/>
	<ellipse opacity="0.3" fill="#FFFFFF" cx="336.922" cy="341.582" rx="26.377" ry="26.461"/>
	<path opacity="0.3" fill="#FFFFFF" d="M55.73,167.112c0,14.617-11.809,26.462-26.379,26.462c-14.564,0-26.377-11.845-26.377-26.462
		c0-14.612,11.813-26.456,26.377-26.456C43.922,140.656,55.73,152.5,55.73,167.112z"/>
	<ellipse opacity="0.3" fill="#FFFFFF" cx="167.134" cy="41.379" rx="33.636" ry="33.742"/>
	<path opacity="0.3" fill="#FFFFFF" d="M80.898,264.246c0,18.641-15.059,33.748-33.637,33.748
		c-18.576,0-33.635-15.107-33.635-33.748c0-18.637,15.059-33.742,33.635-33.742C65.84,230.504,80.898,245.609,80.898,264.246z"/>
	<path opacity="0.3" fill="#FFFFFF" d="M80.898,166.439c0,18.641-15.059,33.747-33.637,33.747
		c-18.576,0-33.635-15.106-33.635-33.747c0-18.633,15.059-33.743,33.635-33.743C65.84,132.696,80.898,147.806,80.898,166.439z"/>
	<path opacity="0.3" fill="#FFFFFF" d="M103.273,243.402c0,18.641-15.059,33.746-33.637,33.746
		c-18.574,0-33.635-15.105-33.635-33.746c0-18.639,15.061-33.744,33.635-33.744C88.215,209.659,103.273,224.764,103.273,243.402z"/>
	<path opacity="0.3" fill="#FFFFFF" d="M181.592,92.685c0,18.638-15.059,33.748-33.641,33.748c-18.574,0-33.637-15.11-33.637-33.748
		c0-18.636,15.063-33.741,33.637-33.741C166.533,58.944,181.592,74.049,181.592,92.685z"/>
	<ellipse opacity="0.3" fill="#FFFFFF" cx="74.432" cy="129.565" rx="33.635" ry="33.742"/>
	<path opacity="0.3" fill="#FFFFFF" d="M234.336,331.588c0,18.639-15.063,33.746-33.639,33.746
		c-18.574,0-33.637-15.107-33.637-33.746s15.063-33.744,33.637-33.744C219.273,297.844,234.336,312.949,234.336,331.588z"/>
	<ellipse opacity="0.3" fill="#FFFFFF" cx="127.177" cy="212.94" rx="33.636" ry="33.746"/>
	<path opacity="0.3" fill="#FFFFFF" d="M267.896,99.097c0,18.641-15.059,33.747-33.637,33.747
		c-18.576,0-33.635-15.106-33.635-33.747c0-18.636,15.059-33.741,33.635-33.741C252.838,65.356,267.896,80.461,267.896,99.097z"/>
	<path opacity="0.3" fill="#FFFFFF" d="M314.055,267.824c0,10.357-8.367,18.75-18.688,18.75c-10.322,0-18.688-8.393-18.688-18.75
		c0-10.35,8.365-18.742,18.688-18.742C305.688,249.082,314.055,257.475,314.055,267.824z"/>
	<ellipse opacity="0.3" fill="#FFFFFF" cx="290.571" cy="208.5" rx="26.378" ry="26.463"/>
	<path opacity="0.3" fill="#FFFFFF" d="M277.488,148.804c0,18.637-15.059,33.746-33.641,33.746
		c-18.574,0-33.633-15.109-33.633-33.746c0-18.636,15.059-33.742,33.633-33.742C262.43,115.062,277.488,130.168,277.488,148.804z"/>
	<path opacity="0.3" fill="#FFFFFF" d="M349.41,145.597c0,18.638-15.057,33.744-33.639,33.744
		c-18.574,0-33.635-15.106-33.635-33.744c0-18.636,15.061-33.742,33.635-33.742C334.354,111.855,349.41,126.961,349.41,145.597z"/>
	<path opacity="0.3" fill="#FFFFFF" d="M202.369,228.973c0,18.637-15.061,33.746-33.639,33.746
		c-18.574,0-33.637-15.109-33.637-33.746c0-18.636,15.063-33.744,33.637-33.744C187.309,195.229,202.369,210.336,202.369,228.973z"
		/>
	<path opacity="0.3" fill="#FFFFFF" d="M221.549,131.166c0,18.641-15.059,33.747-33.641,33.747
		c-18.574,0-33.637-15.106-33.637-33.747c0-18.637,15.063-33.743,33.637-33.743C206.49,97.422,221.549,112.529,221.549,131.166z"/>
	<path opacity="0.3" fill="#FFFFFF" d="M378.18,196.906c0,18.635-15.061,33.747-33.639,33.747
		c-18.574,0-33.637-15.111-33.637-33.747c0-18.638,15.063-33.743,33.637-33.743C363.119,163.163,378.18,178.268,378.18,196.906z"/>
	<path opacity="0.3" fill="#FFFFFF" d="M322.24,195.3c0,18.641-15.063,33.747-33.641,33.747c-18.572,0-33.635-15.105-33.635-33.747
		c0-18.637,15.063-33.743,33.635-33.743C307.178,161.557,322.24,176.664,322.24,195.3z"/>
	<ellipse opacity="0.3" fill="#FFFFFF" cx="141.56" cy="107.115" rx="33.636" ry="33.747"/>
	<ellipse opacity="0.3" fill="#FFFFFF" cx="45.765" cy="234.686" rx="33.636" ry="33.746"/>
	<ellipse opacity="0.3" fill="#FFFFFF" cx="380.604" cy="215.445" rx="33.635" ry="33.746"/>
	<ellipse opacity="0.3" fill="#FFFFFF" cx="353.433" cy="121.749" rx="33.636" ry="33.745"/>
	<path opacity="0.3" fill="#FFFFFF" d="M122.455,86.271c0,18.64-15.063,33.746-33.641,33.746c-18.572,0-33.635-15.106-33.635-33.746
		c0-18.634,15.063-33.744,33.635-33.744C107.393,52.527,122.455,67.637,122.455,86.271z"/>
	<path opacity="0.3" fill="#FFFFFF" d="M323.637,362.852c0,18.643-15.057,33.746-33.635,33.746s-33.637-15.104-33.637-33.746
		c0-18.633,15.059-33.742,33.637-33.742S323.637,344.219,323.637,362.852z"/>
	<path opacity="0.3" fill="#FFFFFF" d="M209.063,391.113c0,18.637-15.059,33.744-33.641,33.744
		c-18.574,0-33.637-15.107-33.637-33.744s15.063-33.74,33.637-33.74C194.004,357.373,209.063,372.477,209.063,391.113z"/>
	<path opacity="0.3" fill="#FFFFFF" d="M123.654,348.525c0,18.637-15.059,33.742-33.641,33.742
		c-18.574,0-33.637-15.105-33.637-33.742s15.063-33.742,33.637-33.742C108.596,314.783,123.654,329.889,123.654,348.525z"/>
	<path opacity="0.3" fill="#FFFFFF" d="M387.17,309.039c0,18.641-15.061,33.748-33.639,33.748
		c-18.574,0-33.635-15.107-33.635-33.748c0-18.635,15.061-33.742,33.635-33.742C372.109,275.297,387.17,290.404,387.17,309.039z"/>
	<ellipse opacity="0.3" fill="#FFFFFF" cx="27.878" cy="183.103" rx="15.89" ry="15.94"/>
	<path opacity="0.3" fill="#FFFFFF" d="M66.844,120.471c0,8.804-7.119,15.94-15.893,15.94c-8.777,0-15.891-7.137-15.891-15.94
		s7.113-15.939,15.891-15.939C59.725,104.532,66.844,111.667,66.844,120.471z"/>
	<path opacity="0.3" fill="#FFFFFF" d="M72.537,102.935c0,8.804-7.113,15.939-15.895,15.939c-8.771,0-15.889-7.136-15.889-15.939
		s7.117-15.941,15.889-15.941C65.424,86.994,72.537,94.131,72.537,102.935z"/>
	<path opacity="0.3" fill="#FFFFFF" d="M88.52,80.489c0,8.805-7.115,15.939-15.895,15.939c-8.771,0-15.889-7.135-15.889-15.939
		s7.117-15.94,15.889-15.94C81.404,64.548,88.52,71.684,88.52,80.489z"/>
	<path opacity="0.3" fill="#FFFFFF" d="M132.951,52.496c0,8.801-7.115,15.94-15.889,15.94c-8.777,0-15.891-7.14-15.891-15.94
		c0-8.803,7.113-15.94,15.891-15.94C125.836,36.555,132.951,43.693,132.951,52.496z"/>
	<ellipse opacity="0.3" fill="#FFFFFF" cx="162.932" cy="19.861" rx="15.889" ry="15.94"/>
	<ellipse opacity="0.3" fill="#FFFFFF" cx="151.943" cy="20.363" rx="15.889" ry="15.94"/>
	<path opacity="0.3" fill="#FFFFFF" d="M173.23,33.988c0,8.804-7.119,15.94-15.895,15.94s-15.891-7.137-15.891-15.94
		c0-8.799,7.115-15.939,15.891-15.939S173.23,25.189,173.23,33.988z"/>
	<ellipse opacity="0.3" fill="#FFFFFF" cx="53.449" cy="296.943" rx="15.891" ry="15.939"/>
	<ellipse opacity="0.3" fill="#FFFFFF" cx="100.197" cy="62.952" rx="15.889" ry="15.939"/>
	<ellipse opacity="0.3" fill="#FFFFFF" cx="197.294" cy="54.833" rx="15.892" ry="15.939"/>
	<ellipse opacity="0.3" fill="#FFFFFF" cx="277.209" cy="389.941" rx="15.891" ry="15.939"/>
	<path opacity="0.3" fill="#FFFFFF" d="M342.246,360.379c0,8.799-7.113,15.939-15.893,15.939c-8.771,0-15.889-7.141-15.889-15.939
		c0-8.805,7.117-15.939,15.889-15.939C335.133,344.439,342.246,351.574,342.246,360.379z"/>
	<ellipse opacity="0.3" fill="#FFFFFF" cx="256.432" cy="266.479" rx="15.891" ry="15.939"/>
	<ellipse opacity="0.3" fill="#FFFFFF" cx="147.748" cy="280.91" rx="15.889" ry="15.939"/>
	<path opacity="0.3" fill="#FFFFFF" d="M352.236,237.621c0,8.799-7.113,15.938-15.895,15.938c-8.771,0-15.889-7.139-15.889-15.938
		c0-8.805,7.117-15.941,15.889-15.941C345.123,221.68,352.236,228.816,352.236,237.621z"/>
	<ellipse opacity="0.3" fill="#FFFFFF" cx="158.936" cy="380.318" rx="15.889" ry="15.939"/>
	<path opacity="0.3" fill="#FFFFFF" d="M232.365,349.857c0,8.797-7.113,15.939-15.895,15.939c-8.771,0-15.889-7.143-15.889-15.939
		c0-8.805,7.117-15.941,15.889-15.941C225.252,333.916,232.365,341.053,232.365,349.857z"/>
	<path opacity="0.3" fill="#FFFFFF" d="M31.779,177.495c0,8.799-7.113,15.938-15.889,15.938S0,186.293,0,177.495
		c0-8.806,7.115-15.94,15.891-15.94S31.779,168.689,31.779,177.495z"/>
	<path opacity="0.3" fill="#FFFFFF" d="M109.797,367.689c0,8.805-7.117,15.941-15.893,15.941c-8.777,0-15.889-7.137-15.889-15.941
		c0-8.799,7.111-15.939,15.889-15.939C102.68,351.75,109.797,358.891,109.797,367.689z"/>
	<ellipse opacity="0.3" fill="#FFFFFF" cx="178.113" cy="401.162" rx="15.891" ry="15.941"/>
	<ellipse opacity="0.3" fill="#FFFFFF" cx="60.042" cy="316.484" rx="15.89" ry="15.941"/>
	<path opacity="0.3" fill="#FFFFFF" d="M158.342,24.969c0,8.804-7.111,15.94-15.889,15.94c-8.775,0-15.891-7.137-15.891-15.94
		c0-8.799,7.115-15.939,15.891-15.939C151.23,9.03,158.342,16.17,158.342,24.969z"/>
	<ellipse opacity="0.3" fill="#FFFFFF" cx="305.777" cy="51.828" rx="15.889" ry="15.938"/>
	<path opacity="0.3" fill="#FFFFFF" d="M62.447,130.394c0,8.8-7.115,15.94-15.891,15.94s-15.889-7.141-15.889-15.94
		c0-8.805,7.113-15.94,15.889-15.94S62.447,121.589,62.447,130.394z"/>
	<path opacity="0.3" fill="#FFFFFF" d="M403.98,278.604c0,8.805-7.117,15.941-15.893,15.941s-15.889-7.137-15.889-15.941
		c0-8.803,7.113-15.938,15.889-15.938S403.98,269.801,403.98,278.604z"/>
	<ellipse opacity="0.3" fill="#FFFFFF" cx="401.475" cy="225.994" rx="15.889" ry="15.939"/>
	<ellipse opacity="0.3" fill="#FFFFFF" cx="34.27" cy="287.625" rx="15.889" ry="15.939"/>
	<path opacity="0.3" fill="#FFFFFF" d="M273.918,397.957c0,8.801-7.113,15.941-15.889,15.941c-8.777,0-15.891-7.141-15.891-15.941
		c0-8.805,7.113-15.938,15.891-15.938C266.805,382.02,273.918,389.152,273.918,397.957z"/>
	<path opacity="0.3" fill="#FFFFFF" d="M155.945,383.826c0,8.805-7.111,15.939-15.891,15.939c-8.773,0-15.889-7.135-15.889-15.939
		c0-8.803,7.115-15.939,15.889-15.939C148.834,367.887,155.945,375.023,155.945,383.826z"/>
	<ellipse opacity="0.3" fill="#FFFFFF" cx="42.402" cy="176.491" rx="41.402" ry="41.533"/>
	<ellipse opacity="0.3" fill="#FFFFFF" cx="53.453" cy="215.941" rx="41.402" ry="41.539"/>
	<path opacity="0.3" fill="#FFFFFF" d="M228.014,78.555c0,22.939-18.535,41.533-41.4,41.533s-41.406-18.594-41.406-41.533
		s18.541-41.536,41.406-41.536S228.014,55.616,228.014,78.555z"/>
	<ellipse opacity="0.3" fill="#FFFFFF" cx="132.271" cy="298.217" rx="41.403" ry="41.531"/>
	<ellipse opacity="0.3" fill="#FFFFFF" cx="89.116" cy="192.391" rx="41.401" ry="41.537"/>
	<ellipse opacity="0.3" fill="#FFFFFF" cx="266.525" cy="70.538" rx="41.402" ry="41.533"/>
	<ellipse opacity="0.3" fill="#FFFFFF" cx="106.697" cy="166.74" rx="41.402" ry="41.534"/>
	<ellipse opacity="0.3" fill="#FFFFFF" cx="148.254" cy="57.709" rx="41.402" ry="41.533"/>
	<path opacity="0.3" fill="#FFFFFF" d="M124.023,94.487c0,22.938-18.533,41.537-41.4,41.537c-22.865,0-41.4-18.6-41.4-41.537
		c0-22.938,18.535-41.532,41.4-41.532C105.49,52.955,124.023,71.548,124.023,94.487z"/>
	<ellipse opacity="0.3" fill="#FFFFFF" cx="52.453" cy="202.015" rx="41.402" ry="41.532"/>
	<path opacity="0.3" fill="#FFFFFF" d="M111.139,285.791c0,22.939-18.533,41.533-41.4,41.533c-22.865,0-41.404-18.594-41.404-41.533
		c0-22.938,18.539-41.537,41.404-41.537C92.605,244.254,111.139,262.854,111.139,285.791z"/>
	<path opacity="0.3" fill="#FFFFFF" d="M207.236,371.973c0,22.939-18.535,41.531-41.4,41.531c-22.869,0-41.406-18.592-41.406-41.531
		c0-22.938,18.537-41.535,41.406-41.535C188.701,330.438,207.236,349.035,207.236,371.973z"/>
	<path opacity="0.3" fill="#FFFFFF" d="M308.627,377.781c0,22.939-18.537,41.539-41.4,41.539c-22.867,0-41.406-18.6-41.406-41.539
		c0-22.938,18.539-41.531,41.406-41.531C290.09,336.25,308.627,354.844,308.627,377.781z"/>
	<ellipse opacity="0.3" fill="#FFFFFF" cx="342.545" cy="328.582" rx="41.402" ry="41.531"/>
	<path opacity="0.3" fill="#FFFFFF" d="M425,247.809c0,22.939-18.533,41.537-41.4,41.537c-22.865,0-41.404-18.598-41.404-41.537
		c0-22.938,18.539-41.532,41.404-41.532C406.467,206.277,425,224.871,425,247.809z"/>
	<path opacity="0.3" fill="#FFFFFF" d="M405.424,145.896c0,22.938-18.537,41.532-41.404,41.532
		c-22.865,0-41.398-18.594-41.398-41.532c0-22.94,18.533-41.533,41.398-41.533C386.887,104.363,405.424,122.956,405.424,145.896z"/>
	<ellipse opacity="0.3" fill="#FFFFFF" cx="312.876" cy="80.156" rx="41.401" ry="41.537"/>
	<ellipse opacity="0.3" fill="#FFFFFF" cx="236.059" cy="47.188" rx="41.402" ry="41.532"/>
	<ellipse opacity="0.3" fill="#FFFFFF" cx="148.254" cy="153.912" rx="41.402" ry="41.533"/>
	<ellipse opacity="0.3" fill="#FFFFFF" cx="148.254" cy="267.754" rx="41.402" ry="41.533"/>
	<path opacity="0.3" fill="#FFFFFF" d="M299.936,278.977c0,22.939-18.533,41.533-41.4,41.533c-22.865,0-41.404-18.594-41.404-41.533
		s18.539-41.537,41.404-41.537C281.402,237.439,299.936,256.037,299.936,278.977z"/>
	<path opacity="0.3" fill="#FFFFFF" d="M323.91,181.168c0,22.939-18.533,41.537-41.398,41.537
		c-22.867,0-41.406-18.597-41.406-41.537c0-22.938,18.539-41.532,41.406-41.532C305.377,139.636,323.91,158.23,323.91,181.168z"/>
	<ellipse opacity="0.3" fill="#FFFFFF" cx="220.177" cy="142.69" rx="41.401" ry="41.533"/>
	<path opacity="0.3" fill="#FFFFFF" d="M178.465,99.988c0,25.92-20.945,46.933-46.785,46.933c-25.836,0-46.787-21.013-46.787-46.933
		c0-25.923,20.951-46.936,46.787-46.936C157.52,53.052,178.465,74.065,178.465,99.988z"/>
	<ellipse opacity="0.3" fill="#FFFFFF" cx="102.914" cy="138.469" rx="46.785" ry="46.931"/>
	<path opacity="0.3" fill="#FFFFFF" d="M338.295,305.219c0,25.922-20.947,46.936-46.787,46.936
		c-25.836,0-46.785-21.014-46.785-46.936s20.949-46.934,46.785-46.934C317.348,258.285,338.295,279.297,338.295,305.219z"/>
	<ellipse opacity="0.3" fill="#FFFFFF" cx="205.202" cy="287.584" rx="46.786" ry="46.932"/>
	<ellipse opacity="0.3" fill="#FFFFFF" cx="237.168" cy="244.291" rx="46.785" ry="46.934"/>
	<ellipse opacity="0.3" fill="#FFFFFF" cx="229.177" cy="93.575" rx="46.786" ry="46.935"/>
	<path opacity="0.3" fill="#FFFFFF" d="M341.492,154.504c0,25.917-20.945,46.931-46.785,46.931
		c-25.838,0-46.785-21.014-46.785-46.931c0-25.924,20.947-46.936,46.785-46.936C320.547,107.569,341.492,128.581,341.492,154.504z"
		/>
	<ellipse opacity="0.3" fill="#FFFFFF" cx="191.817" cy="57.898" rx="46.786" ry="46.936"/>
	<path opacity="0.3" fill="#FFFFFF" d="M322.313,70.397c0,25.922-20.947,46.935-46.787,46.935
		c-25.836,0-46.785-21.013-46.785-46.935c0-25.923,20.949-46.935,46.785-46.935C301.365,23.462,322.313,44.474,322.313,70.397z"/>
	<path opacity="0.3" fill="#FFFFFF" d="M415.012,181.76c0,25.922-20.945,46.935-46.787,46.935
		c-25.834,0-46.783-21.013-46.783-46.935s20.949-46.936,46.783-46.936C394.066,134.825,415.012,155.838,415.012,181.76z"/>
	<ellipse opacity="0.3" fill="#FFFFFF" cx="231.276" cy="366.047" rx="46.786" ry="46.934"/>
	<path opacity="0.3" fill="#FFFFFF" d="M180.465,346.209c0,25.916-20.947,46.93-46.787,46.93c-25.836,0-46.785-21.014-46.785-46.93
		c0-25.922,20.949-46.936,46.785-46.936C159.518,299.273,180.465,320.287,180.465,346.209z"/>
	<ellipse opacity="0.3" fill="#FFFFFF" cx="65.852" cy="157.91" rx="46.785" ry="46.935"/>
	<ellipse opacity="0.3" fill="#FFFFFF" cx="52.468" cy="264.234" rx="46.786" ry="46.932"/>
	<ellipse opacity="0.3" fill="#FFFFFF" cx="129.185" cy="100.088" rx="61.171" ry="61.364"/>
	<ellipse opacity="0.3" fill="#FFFFFF" cx="102.911" cy="148.087" rx="61.171" ry="61.365"/>
	<path opacity="0.3" fill="#FFFFFF" d="M164.779,302.713c0,33.893-27.383,61.365-61.168,61.365
		c-33.779,0-61.172-27.473-61.172-61.365c0-33.891,27.393-61.363,61.172-61.363C137.396,241.35,164.779,268.822,164.779,302.713z"/>
	<path opacity="0.3" fill="#FFFFFF" d="M279.158,212.223c0,33.89-27.385,61.363-61.17,61.363c-33.779,0-61.172-27.473-61.172-61.363
		c0-33.893,27.393-61.364,61.172-61.364C251.773,150.859,279.158,178.331,279.158,212.223z"/>
	<path opacity="0.3" fill="#FFFFFF" d="M354.578,326.365c0,33.887-27.387,61.365-61.17,61.365
		c-33.779,0-61.174-27.479-61.174-61.365c0-33.891,27.395-61.367,61.174-61.367C327.191,264.998,354.578,292.475,354.578,326.365z"
		/>
	<path opacity="0.3" fill="#FFFFFF" d="M389.441,223.449c0,33.887-27.389,61.363-61.172,61.363
		c-33.781,0-61.168-27.477-61.168-61.363c0-33.891,27.387-61.367,61.168-61.367C362.053,162.083,389.441,189.558,389.441,223.449z"
		/>
	<ellipse opacity="0.3" fill="#FFFFFF" cx="219.587" cy="125.642" rx="61.171" ry="61.364"/>
	<ellipse opacity="0.3" fill="#FFFFFF" cx="134.877" cy="98.385" rx="61.172" ry="61.363"/>
	<path opacity="0.3" fill="#FFFFFF" d="M231.209,175.348c0,33.889-27.383,61.365-61.168,61.365
		c-33.779,0-61.174-27.476-61.174-61.365c0-33.891,27.395-61.368,61.174-61.368C203.826,113.98,231.209,141.458,231.209,175.348z"/>
	<ellipse opacity="0.3" fill="#FFFFFF" cx="152.46" cy="199.399" rx="61.171" ry="61.365"/>
	<ellipse opacity="0.3" fill="#FFFFFF" cx="115.698" cy="217.033" rx="61.171" ry="61.363"/>
	<path opacity="0.3" fill="#FFFFFF" d="M172.074,242.689c0,33.887-27.385,61.363-61.168,61.363
		c-33.785,0-61.174-27.477-61.174-61.363c0-33.893,27.389-61.369,61.174-61.369C144.689,181.321,172.074,208.796,172.074,242.689z"
		/>
	<path opacity="0.3" fill="#FFFFFF" d="M401.627,267.941c0,33.891-27.387,61.363-61.172,61.363
		c-33.779,0-61.168-27.473-61.168-61.363c0-33.893,27.389-61.363,61.168-61.363C374.24,206.579,401.627,234.049,401.627,267.941z"/>
	<ellipse opacity="0.3" fill="#FFFFFF" cx="200.408" cy="329.27" rx="61.17" ry="61.363"/>
	<path opacity="0.3" fill="#FFFFFF" d="M383.447,122.435c0,33.889-27.387,61.365-61.172,61.365
		c-33.779,0-61.168-27.477-61.168-61.365c0-33.89,27.389-61.366,61.168-61.366C356.061,61.069,383.447,88.545,383.447,122.435z"/>
	<path opacity="0.3" fill="#FFFFFF" d="M298.336,173.744c0,33.892-27.383,61.362-61.168,61.362c-33.779,0-61.17-27.47-61.17-61.362
		c0-33.893,27.391-61.364,61.17-61.364C270.953,112.379,298.336,139.851,298.336,173.744z"/>
	<path opacity="0.3" fill="#FFFFFF" d="M168.879,148.087c0,33.892-27.391,61.365-61.174,61.365
		c-33.779,0-61.168-27.474-61.168-61.365s27.389-61.363,61.168-61.363C141.488,86.724,168.879,114.196,168.879,148.087z"/>
	<path opacity="0.3" fill="#FFFFFF" d="M247.191,236.273c0,33.893-27.383,61.365-61.168,61.365
		c-33.779,0-61.174-27.473-61.174-61.365c0-33.892,27.395-61.364,61.174-61.364C219.809,174.91,247.191,202.381,247.191,236.273z"/>
</g>
</svg>
