<?xml version="1.0" encoding="utf-8"?>
<!DOCTYPE svg PUBLIC "-//W3C//DTD SVG 1.1//EN" "http://www.w3.org/Graphics/SVG/1.1/DTD/svg11.dtd">
<svg version="1.1" xmlns="http://www.w3.org/2000/svg">
	<defs>
        <mask id="mask-demo" maskUnits="userSpaceOnUse"> 
			<path fill="white" d="M472.691,410.327c-0.553,22.368-18.955,42.827-41.142,45.688c-22.191,2.871-49.613,20.671-61.258,39.792
	v-0.023c-11.65,19.107-37.811,27.62-58.466,19.003v0.012c-20.63-8.614-53.295-6.893-72.923,3.815
	c-19.639,10.726-46.565,5.014-60.152-12.774c-13.566-17.782-42.71-32.626-65.068-33.16c-22.365-0.52-42.82-18.948-45.68-41.128
	c-2.872-22.181-20.675-49.624-39.773-61.258v0.004C9.118,358.643,0.63,332.466,9.228,311.833l0,0
	c8.605-20.645,6.906-53.309-3.82-72.95c-10.729-19.631-4.997-46.546,12.778-60.121c17.791-13.583,32.628-42.708,33.148-65.076l0,0
	c0.54-22.36,18.955-42.815,41.142-45.69c22.187-2.872,49.608-20.667,61.248-39.769c11.634-19.1,37.828-27.609,58.474-19.002l0,0
	c20.633,8.62,53.294,6.901,72.926-3.823c19.652-10.712,46.564-5,60.151,12.784c13.555,17.778,42.7,32.632,65.052,33.151
	c22.38,0.53,42.835,18.948,45.694,41.143c2.854,22.184,20.68,49.611,39.774,61.246c19.108,11.652,27.616,37.83,18.998,58.47
	c-8.61,20.647-6.911,53.298,3.818,72.939c10.728,19.626,5.005,46.545-12.761,60.129c-17.795,13.567-32.646,42.713-33.16,65.079
	V410.327z"/>
		</mask>
	</defs>
</svg>