<?xml version="1.0" encoding="utf-8"?>
<!-- Generator: Adobe Illustrator 16.0.0, SVG Export Plug-In . SVG Version: 6.00 Build 0)  -->
<!DOCTYPE svg PUBLIC "-//W3C//DTD SVG 1.1//EN" "http://www.w3.org/Graphics/SVG/1.1/DTD/svg11.dtd">
<svg version="1.1" id="Layer_1" xmlns="http://www.w3.org/2000/svg" xmlns:xlink="http://www.w3.org/1999/xlink" x="0px" y="0px"
	 width="700px" height="525px" viewBox="0 0 700 525" enable-background="new 0 0 700 525" xml:space="preserve">
<g>
	<defs>
		<rect id="SVGID_1_" width="700" height="525.002"/>
	</defs>
	<clipPath id="SVGID_2_">
		<use xlink:href="#SVGID_1_"  overflow="visible"/>
	</clipPath>
	<g clip-path="url(#SVGID_2_)">
		<path opacity="0.3" fill="#FFFFFF" d="M148.286,516.615c0,23.15-18.7,41.912-41.771,41.912c-23.072,0-41.772-18.762-41.772-41.912
			c0-23.137,18.7-41.896,41.772-41.896C129.586,474.719,148.286,493.479,148.286,516.615z"/>
		<path opacity="0.3" fill="#FFFFFF" d="M162.571,545.287c0,23.146-18.701,41.904-41.769,41.904
			c-23.072,0-41.772-18.758-41.772-41.904c0-23.143,18.7-41.902,41.772-41.902C143.87,503.385,162.571,522.145,162.571,545.287z"/>
		<ellipse opacity="0.3" fill="#FFFFFF" cx="85.076" cy="502.281" rx="41.771" ry="41.904"/>
		<path opacity="0.3" fill="#FFFFFF" d="M133.997-31.734c0,23.144-18.699,41.902-41.778,41.902
			c-23.062,0-41.762-18.759-41.762-41.902c0-23.146,18.7-41.905,41.762-41.905C115.298-73.64,133.997-54.88,133.997-31.734z"/>
		<path opacity="0.3" fill="#FFFFFF" d="M98.272-38.91c0,23.152-18.699,41.912-41.779,41.912c-23.063,0-41.764-18.76-41.764-41.912
			c0-23.136,18.7-41.896,41.764-41.896C79.573-80.806,98.272-62.046,98.272-38.91z"/>
		<path opacity="0.3" fill="#FFFFFF" d="M196.737-98.271c0,23.152-18.7,41.912-41.771,41.912c-23.068,0-41.769-18.76-41.769-41.912
			c0-23.136,18.7-41.895,41.769-41.895C178.037-140.165,196.737-121.406,196.737-98.271z"/>
		<path opacity="0.3" fill="#FFFFFF" d="M223.313-121.336c0,23.145-18.699,41.903-41.779,41.903
			c-23.062,0-41.762-18.759-41.762-41.903c0-23.144,18.7-41.904,41.762-41.904C204.614-163.24,223.313-144.479,223.313-121.336z"/>
		<ellipse opacity="0.3" fill="#FFFFFF" cx="77.932" cy="595.471" rx="41.771" ry="41.902"/>
		<ellipse opacity="0.3" fill="#FFFFFF" cx="-29.246" cy="222.724" rx="41.771" ry="41.903"/>
		<ellipse opacity="0.3" fill="#FFFFFF" cx="23.226" cy="-33.975" rx="41.77" ry="41.902"/>
		<path opacity="0.3" fill="#FFFFFF" d="M251.889-63.996c0,23.143-18.7,41.902-41.771,41.902c-23.07,0-41.771-18.76-41.771-41.902
			c0-23.146,18.7-41.904,41.771-41.904C233.188-105.9,251.889-87.142,251.889-63.996z"/>
		<path opacity="0.3" fill="#FFFFFF" d="M319.773-146.431c0,23.153-18.7,41.912-41.771,41.912
			c-23.068,0-41.771-18.759-41.771-41.912c0-23.135,18.702-41.896,41.771-41.896C301.073-188.326,319.773-169.565,319.773-146.431z"
			/>
		<ellipse opacity="0.3" fill="#FFFFFF" cx="509.325" cy="-112.158" rx="41.771" ry="41.905"/>
		<ellipse opacity="0.3" fill="#FFFFFF" cx="755.83" cy="238.22" rx="41.77" ry="41.905"/>
		<path opacity="0.3" fill="#FFFFFF" d="M133.997,308.746c0,23.143-18.699,41.903-41.778,41.903
			c-23.062,0-41.762-18.761-41.762-41.903c0-23.144,18.7-41.904,41.762-41.904C115.298,266.842,133.997,285.603,133.997,308.746z"/>
		<path opacity="0.3" fill="#FFFFFF" d="M519.836-6.648c0,23.144-18.7,41.902-41.771,41.902s-41.771-18.759-41.771-41.902
			c0-23.146,18.699-41.905,41.771-41.905S519.836-29.794,519.836-6.648z"/>
		<ellipse opacity="0.3" fill="#FFFFFF" cx="463.777" cy="434.188" rx="41.771" ry="41.904"/>
		<path opacity="0.3" fill="#FFFFFF" d="M566.281,247.812c0,23.151-18.701,41.911-41.771,41.911
			c-23.07,0-41.771-18.76-41.771-41.911c0-23.136,18.7-41.896,41.771-41.896C547.58,205.915,566.281,224.676,566.281,247.812z"/>
		<path opacity="0.3" fill="#FFFFFF" d="M266.183,670.729c0,23.145-18.698,41.904-41.771,41.904
			c-23.069,0-41.771-18.76-41.771-41.904c0-23.143,18.701-41.906,41.771-41.906C247.484,628.822,266.183,647.586,266.183,670.729z"
			/>
		<path opacity="0.3" fill="#FFFFFF" d="M66.113,140.291c0,23.152-18.701,41.911-41.771,41.911c-23.069,0-41.77-18.759-41.77-41.911
			c0-23.137,18.7-41.896,41.77-41.896C47.412,98.395,66.113,117.154,66.113,140.291z"/>
		<ellipse opacity="0.3" fill="#FFFFFF" cx="545.95" cy="387.594" rx="41.771" ry="41.904"/>
		<ellipse opacity="0.3" fill="#FFFFFF" cx="281.57" cy="505.869" rx="41.771" ry="41.904"/>
		<ellipse opacity="0.3" fill="#FFFFFF" cx="142.24" cy="620.557" rx="41.77" ry="41.904"/>
		<path opacity="0.3" fill="#FFFFFF" d="M77.061,544.613c0,23.152-18.703,41.912-41.78,41.912c-23.061,0-41.763-18.76-41.763-41.912
			c0-23.135,18.702-41.893,41.763-41.893C58.357,502.721,77.061,521.479,77.061,544.613z"/>
		<path opacity="0.3" fill="#FFFFFF" d="M394.793-143.963c0,23.144-18.7,41.903-41.77,41.903c-23.072,0-41.771-18.76-41.771-41.903
			c0-23.145,18.699-41.904,41.771-41.904C376.093-185.867,394.793-167.107,394.793-143.963z"/>
		<path opacity="0.3" fill="#FFFFFF" d="M144.038,158.211c0,32.672-26.393,59.148-58.962,59.148
			c-32.563,0-58.956-26.477-58.956-59.148c0-32.665,26.394-59.143,58.956-59.143C117.646,99.068,144.038,125.546,144.038,158.211z"
			/>
		<path opacity="0.3" fill="#FFFFFF" d="M111.887,229.892c0,32.672-26.402,59.15-58.96,59.15c-32.562,0-58.964-26.479-58.964-59.15
			c0-32.664,26.402-59.144,58.964-59.144C85.484,170.748,111.887,197.228,111.887,229.892z"/>
		<path opacity="0.3" fill="#FFFFFF" d="M101.169,265.731c0,32.672-26.395,59.15-58.964,59.15c-32.56,0-58.962-26.479-58.962-59.15
			c0-32.665,26.402-59.144,58.962-59.144C74.774,206.588,101.169,233.066,101.169,265.731z"/>
		<path opacity="0.3" fill="#FFFFFF" d="M111.887,394.76c0,32.674-26.402,59.15-58.96,59.15c-32.562,0-58.964-26.477-58.964-59.15
			c0-32.665,26.402-59.151,58.964-59.151C85.484,335.608,111.887,362.095,111.887,394.76z"/>
		<path opacity="0.3" fill="#FFFFFF" d="M90.448,470.029c0,32.664-26.394,59.15-58.963,59.15c-32.56,0-58.953-26.486-58.953-59.15
			c0-32.674,26.394-59.15,58.953-59.15C64.055,410.879,90.448,437.355,90.448,470.029z"/>
		<path opacity="0.3" fill="#FFFFFF" d="M108.312,455.688c0,32.672-26.394,59.15-58.962,59.15c-32.561,0-58.955-26.479-58.955-59.15
			c0-32.664,26.395-59.145,58.955-59.145C81.918,396.543,108.312,423.023,108.312,455.688z"/>
		<path opacity="0.3" fill="#FFFFFF" d="M14.975,152.164c0,32.673-26.393,59.15-58.962,59.15c-32.561,0-58.954-26.478-58.954-59.15
			c0-32.664,26.394-59.141,58.954-59.141C-11.418,93.023,14.975,119.5,14.975,152.164z"/>
		<path opacity="0.3" fill="#FFFFFF" d="M165.475-20.99c0,32.673-26.4,59.15-58.959,59.15c-32.562,0-58.963-26.478-58.963-59.15
			c0-32.665,26.401-59.143,58.963-59.143C139.074-80.133,165.475-53.655,165.475-20.99z"/>
		<path opacity="0.3" fill="#FFFFFF" d="M101.169,22.024c0,32.664-26.395,59.149-58.964,59.149
			c-32.56,0-58.962-26.485-58.962-59.149c0-32.674,26.402-59.15,58.962-59.15C74.774-37.126,101.169-10.649,101.169,22.024z"/>
		<path opacity="0.3" fill="#FFFFFF" d="M76.161,254.984c0,32.665-26.403,59.151-58.962,59.151
			c-32.561,0-58.963-26.486-58.963-59.151c0-32.671,26.402-59.149,58.963-59.149C49.758,195.835,76.161,222.313,76.161,254.984z"/>
		<path opacity="0.3" fill="#FFFFFF" d="M726.379,97.284c0,32.673-26.395,59.15-58.964,59.15c-32.559,0-58.962-26.478-58.962-59.15
			c0-32.665,26.403-59.143,58.962-59.143C699.984,38.142,726.379,64.619,726.379,97.284z"/>
		<path opacity="0.3" fill="#FFFFFF" d="M422.704,505.869c0,32.664-26.393,59.15-58.961,59.15c-32.561,0-58.963-26.486-58.963-59.15
			c0-32.672,26.402-59.15,58.963-59.15C396.312,446.719,422.704,473.197,422.704,505.869z"/>
		<path opacity="0.3" fill="#FFFFFF" d="M68.346,458.602c0,32.672-26.401,59.15-58.963,59.15c-32.56,0-58.961-26.479-58.961-59.15
			c0-32.666,26.401-59.154,58.961-59.154C41.944,399.447,68.346,425.936,68.346,458.602z"/>
		<path opacity="0.3" fill="#FFFFFF" d="M454.854,657.287c0,32.674-26.393,59.15-58.961,59.15c-32.562,0-58.955-26.477-58.955-59.15
			c0-32.664,26.394-59.141,58.955-59.141C428.462,598.146,454.854,624.623,454.854,657.287z"/>
		<path opacity="0.3" fill="#FFFFFF" d="M236.928,516.615c0,32.67-26.401,59.148-58.959,59.148
			c-32.562,0-58.964-26.479-58.964-59.148c0-32.664,26.402-59.143,58.964-59.143C210.526,457.473,236.928,483.951,236.928,516.615z"
			/>
		<path opacity="0.3" fill="#FFFFFF" d="M72.586,65.031c0,32.664-26.395,59.15-58.963,59.15c-32.562,0-58.955-26.486-58.955-59.15
			c0-32.663,26.394-59.15,58.955-59.15C46.191,5.881,72.586,32.368,72.586,65.031z"/>
		<path opacity="0.3" fill="#FFFFFF" d="M197.628-46.076c0,32.673-26.394,59.148-58.965,59.148
			c-32.559,0-58.952-26.476-58.952-59.148c0-32.665,26.394-59.143,58.952-59.143C171.234-105.219,197.628-78.741,197.628-46.076z"/>
		<path opacity="0.3" fill="#FFFFFF" d="M294.086,147.464c0,32.665-26.394,59.151-58.961,59.151
			c-32.561,0-58.955-26.486-58.955-59.151c0-32.672,26.395-59.148,58.955-59.148C267.692,88.315,294.086,114.792,294.086,147.464z"
			/>
		<path opacity="0.3" fill="#FFFFFF" d="M240.497,32.77c0,32.673-26.394,59.15-58.963,59.15c-32.561,0-58.954-26.478-58.954-59.15
			c0-32.663,26.394-59.142,58.954-59.142C214.104-26.372,240.497,0.106,240.497,32.77z"/>
		<path opacity="0.3" fill="#FFFFFF" d="M5.62,380.461c0,32.668-26.403,59.152-58.962,59.152c-32.569,0-58.964-26.484-58.964-59.152
			c0-32.663,26.395-59.15,58.964-59.15C-20.783,321.311,5.62,347.798,5.62,380.461z"/>
		<path opacity="0.3" fill="#FFFFFF" d="M76.161,448.521c0,32.672-26.403,59.15-58.962,59.15c-32.561,0-58.963-26.479-58.963-59.15
			c0-32.664,26.402-59.152,58.963-59.152C49.758,389.369,76.161,415.857,76.161,448.521z"/>
		<path opacity="0.3" fill="#FFFFFF" d="M247.649,577.549c0,32.662-26.402,59.15-58.964,59.15c-32.568,0-58.961-26.488-58.961-59.15
			c0-32.672,26.393-59.15,58.961-59.15C221.247,518.398,247.649,544.877,247.649,577.549z"/>
		<path opacity="0.3" fill="#FFFFFF" d="M572.753,340.998c0,32.674-26.393,59.15-58.962,59.15c-32.56,0-58.954-26.477-58.954-59.15
			c0-32.663,26.395-59.15,58.954-59.15C546.36,281.848,572.753,308.335,572.753,340.998z"/>
		<path opacity="0.3" fill="#FFFFFF" d="M640.639,276.484c0,32.674-26.402,59.15-58.963,59.15c-32.569,0-58.961-26.477-58.961-59.15
			c0-32.664,26.392-59.141,58.961-59.141C614.236,217.344,640.639,243.82,640.639,276.484z"/>
		<path opacity="0.3" fill="#FFFFFF" d="M172.621,437.768c0,32.672-26.394,59.148-58.963,59.148
			c-32.561,0-58.962-26.477-58.962-59.148c0-32.665,26.401-59.143,58.962-59.143C146.228,378.625,172.621,405.103,172.621,437.768z"
			/>
		<path opacity="0.3" fill="#FFFFFF" d="M476.293,211.972c0,32.672-26.393,59.149-58.961,59.149
			c-32.561,0-58.963-26.478-58.963-59.149c0-32.664,26.402-59.142,58.963-59.142C449.9,152.83,476.293,179.308,476.293,211.972z"/>
		<path opacity="0.3" fill="#FFFFFF" d="M326.245,384.006c0,32.674-26.401,59.15-58.962,59.15s-58.962-26.477-58.962-59.15
			c0-32.664,26.401-59.142,58.962-59.142S326.245,351.342,326.245,384.006z"/>
		<path opacity="0.3" fill="#FFFFFF" d="M612.056,32.77c0,32.673-26.401,59.15-58.963,59.15c-32.561,0-58.962-26.478-58.962-59.15
			c0-32.663,26.401-59.142,58.962-59.142C585.654-26.372,612.056,0.106,612.056,32.77z"/>
		<path opacity="0.3" fill="#FFFFFF" d="M569.187,484.361c0,32.672-26.403,59.15-58.964,59.15c-32.567,0-58.961-26.479-58.961-59.15
			c0-32.664,26.394-59.148,58.961-59.148C542.783,425.213,569.187,451.697,569.187,484.361z"/>
		<path opacity="0.3" fill="#FFFFFF" d="M654.927,362.507c0,32.665-26.395,59.151-58.964,59.151
			c-32.56,0-58.962-26.486-58.962-59.151c0-32.673,26.402-59.15,58.962-59.15C628.532,303.356,654.927,329.834,654.927,362.507z"/>
		<path opacity="0.3" fill="#FFFFFF" d="M144.038,319.49c0,32.675-26.393,59.15-58.962,59.15c-32.563,0-58.956-26.476-58.956-59.15
			c0-32.663,26.394-59.141,58.956-59.141C117.646,260.35,144.038,286.827,144.038,319.49z"/>
		<path opacity="0.3" fill="#FFFFFF" d="M389.438,662.887c0,32.674-26.403,59.152-58.963,59.152
			c-32.568,0-58.962-26.479-58.962-59.152c0-32.662,26.394-59.139,58.962-59.139C363.035,603.748,389.438,630.225,389.438,662.887z"
			/>
		<path opacity="0.3" fill="#FFFFFF" d="M801.408,348.165c0,32.673-26.402,59.151-58.964,59.151
			c-32.568,0-58.962-26.479-58.962-59.151c0-32.663,26.394-59.142,58.962-59.142C775.006,289.023,801.408,315.502,801.408,348.165z"
			/>
		<path opacity="0.3" fill="#FFFFFF" d="M554.89,276.484c0,32.674-26.393,59.15-58.962,59.15c-32.559,0-58.953-26.477-58.953-59.15
			c0-32.664,26.395-59.141,58.953-59.141C528.497,217.344,554.89,243.82,554.89,276.484z"/>
		<path opacity="0.3" fill="#FFFFFF" d="M787.111,211.972c0,32.672-26.395,59.149-58.964,59.149
			c-32.558,0-58.952-26.478-58.952-59.149c0-32.664,26.395-59.142,58.952-59.142C760.717,152.83,787.111,179.308,787.111,211.972z"
			/>
		<path opacity="0.3" fill="#FFFFFF" d="M33.065,135.364c0,32.672-26.394,59.149-58.964,59.149
			c-32.56,0-58.962-26.478-58.962-59.149c0-32.664,26.402-59.142,58.962-59.142C6.672,76.223,33.065,102.7,33.065,135.364z"/>
		<path opacity="0.3" fill="#FFFFFF" d="M521.623-134.11c0,32.672-26.403,59.149-58.961,59.149
			c-32.561,0-58.963-26.478-58.963-59.149c0-32.664,26.402-59.142,58.963-59.142C495.22-193.252,521.623-166.774,521.623-134.11z"/>
		<path opacity="0.3" fill="#FFFFFF" d="M499.294-148.671c0,32.672-26.401,59.149-58.961,59.149
			c-32.561,0-58.963-26.478-58.963-59.149c0-32.664,26.402-59.142,58.963-59.142C472.893-207.813,499.294-181.335,499.294-148.671z"
			/>
		<path opacity="0.3" fill="#FFFFFF" d="M704.05-24.351c0,32.673-26.395,59.15-58.964,59.15c-32.558,0-58.962-26.478-58.962-59.15
			c0-32.664,26.404-59.142,58.962-59.142C677.655-83.492,704.05-57.015,704.05-24.351z"/>
		<path opacity="0.3" fill="#FFFFFF" d="M810.111,158.884c0,32.673-26.395,59.151-58.962,59.151
			c-32.56,0-58.962-26.479-58.962-59.151c0-32.664,26.402-59.141,58.962-59.141C783.717,99.743,810.111,126.22,810.111,158.884z"/>
		<path opacity="0.3" fill="#FFFFFF" d="M687.074,556.041c0,32.674-26.391,59.15-58.96,59.15c-32.562,0-58.955-26.477-58.955-59.15
			c0-32.664,26.394-59.15,58.955-59.15C660.684,496.891,687.074,523.377,687.074,556.041z"/>
		<path opacity="0.3" fill="#FFFFFF" d="M-0.43,166.051c0,32.672-26.393,59.15-58.961,59.15c-32.56,0-58.962-26.479-58.962-59.15
			c0-32.664,26.402-59.142,58.962-59.142C-26.822,106.909-0.43,133.387-0.43,166.051z"/>
		<path opacity="0.3" fill="#FFFFFF" d="M323.776-115.002c0,41.66-33.66,75.427-75.187,75.427
			c-41.525,0-75.186-33.767-75.186-75.427c0-41.657,33.66-75.425,75.186-75.425C290.116-190.427,323.776-156.659,323.776-115.002z"
			/>
		<path opacity="0.3" fill="#FFFFFF" d="M55.829,383.174c0,41.67-33.659,75.436-75.186,75.436s-75.185-33.766-75.185-75.436
			c0-41.658,33.658-75.426,75.185-75.426S55.829,341.516,55.829,383.174z"/>
		<path opacity="0.3" fill="#FFFFFF" d="M55.829,164.546c0,41.668-33.659,75.434-75.186,75.434s-75.185-33.766-75.185-75.434
			c0-41.65,33.658-75.426,75.185-75.426S55.829,122.896,55.829,164.546z"/>
		<path opacity="0.3" fill="#FFFFFF" d="M105.843,336.58c0,41.668-33.659,75.438-75.186,75.438
			c-41.519,0-75.186-33.77-75.186-75.438c0-41.658,33.667-75.427,75.186-75.427C72.184,261.153,105.843,294.922,105.843,336.58z"/>
		<path opacity="0.3" fill="#FFFFFF" d="M280.907-0.314c0,41.659-33.66,75.434-75.194,75.434c-41.52,0-75.187-33.774-75.187-75.434
			c0-41.658,33.667-75.426,75.187-75.426C247.247-75.74,280.907-41.973,280.907-0.314z"/>
		<path opacity="0.3" fill="#FFFFFF" d="M116.563,82.12c0,41.658-33.659,75.424-75.185,75.424
			c-41.526,0-75.188-33.766-75.188-75.424c0-41.659,33.661-75.425,75.188-75.425C82.903,6.695,116.563,40.461,116.563,82.12z"/>
		<path opacity="0.3" fill="#FFFFFF" d="M398.806,533.701c0,41.668-33.669,75.436-75.193,75.436
			c-41.52,0-75.187-33.768-75.187-75.436c0-41.656,33.667-75.424,75.187-75.424C365.137,458.277,398.806,492.045,398.806,533.701z"
			/>
		<path opacity="0.3" fill="#FFFFFF" d="M234.461,268.486c0,41.658-33.659,75.434-75.186,75.434S84.09,310.145,84.09,268.486
			s33.659-75.425,75.186-75.425S234.461,226.828,234.461,268.486z"/>
		<path opacity="0.3" fill="#FFFFFF" d="M473.826,14.018c0,41.669-33.66,75.435-75.186,75.435
			c-41.526,0-75.187-33.766-75.187-75.435c0-41.658,33.66-75.425,75.187-75.425C440.166-61.407,473.826-27.641,473.826,14.018z"/>
		<path opacity="0.3" fill="#FFFFFF" d="M577,391.17c0,23.156-18.699,41.916-41.77,41.916c-23.071,0-41.771-18.76-41.771-41.916
			c0-23.135,18.7-41.895,41.771-41.895C558.301,349.275,577,368.035,577,391.17z"/>
		<path opacity="0.3" fill="#FFFFFF" d="M583.473,258.564c0,32.672-26.394,59.15-58.962,59.15c-32.56,0-58.962-26.479-58.962-59.15
			c0-32.664,26.402-59.142,58.962-59.142C557.079,199.423,583.473,225.9,583.473,258.564z"/>
		<path opacity="0.3" fill="#FFFFFF" d="M495.265,125.126c0,41.659-33.658,75.436-75.193,75.436
			c-41.52,0-75.187-33.776-75.187-75.436s33.667-75.425,75.187-75.425C461.606,49.701,495.265,83.467,495.265,125.126z"/>
		<path opacity="0.3" fill="#FFFFFF" d="M656.034,117.961c0,41.658-33.66,75.424-75.196,75.424
			c-41.517,0-75.185-33.766-75.185-75.424c0-41.66,33.668-75.427,75.185-75.427C622.374,42.534,656.034,76.301,656.034,117.961z"/>
		<path opacity="0.3" fill="#FFFFFF" d="M327.353,304.327c0,41.658-33.667,75.433-75.193,75.433
			c-41.519,0-75.188-33.774-75.188-75.433c0-41.659,33.669-75.427,75.188-75.427C293.686,228.9,327.353,262.668,327.353,304.327z"/>
		<path opacity="0.3" fill="#FFFFFF" d="M370.225,85.698c0,41.669-33.66,75.434-75.196,75.434
			c-41.519,0-75.186-33.765-75.186-75.434c0-41.658,33.667-75.424,75.186-75.424C336.564,10.274,370.225,44.04,370.225,85.698z"/>
		<path opacity="0.3" fill="#FFFFFF" d="M720.342,232.646c0,41.659-33.667,75.434-75.194,75.434
			c-41.516,0-75.187-33.774-75.187-75.434c0-41.658,33.671-75.424,75.187-75.424C686.675,157.223,720.342,190.988,720.342,232.646z"
			/>
		<path opacity="0.3" fill="#FFFFFF" d="M595.302,229.06c0,41.667-33.668,75.433-75.197,75.433
			c-41.516,0-75.184-33.766-75.184-75.433c0-41.66,33.668-75.426,75.184-75.426C561.634,153.634,595.302,187.399,595.302,229.06z"/>
		<path opacity="0.3" fill="#FFFFFF" d="M266.61,31.938c0,41.669-33.659,75.435-75.185,75.435
			c-41.519,0-75.186-33.766-75.186-75.435c0-41.657,33.667-75.425,75.186-75.425C232.951-43.487,266.61-9.72,266.61,31.938z"/>
		<path opacity="0.3" fill="#FFFFFF" d="M52.481,317.094c0,41.667-33.661,75.434-75.188,75.434s-75.186-33.767-75.186-75.434
			c0-41.659,33.659-75.426,75.186-75.426S52.481,275.435,52.481,317.094z"/>
		<path opacity="0.3" fill="#FFFFFF" d="M800.944,274.087c0,41.659-33.658,75.434-75.186,75.434
			c-41.525,0-75.186-33.774-75.186-75.434s33.66-75.426,75.186-75.426C767.286,198.661,800.944,232.428,800.944,274.087z"/>
		<path opacity="0.3" fill="#FFFFFF" d="M740.211,64.646c0,41.658-33.659,75.435-75.185,75.435
			c-41.527,0-75.187-33.776-75.187-75.435c0-41.66,33.659-75.426,75.187-75.426C706.552-10.779,740.211,22.986,740.211,64.646z"/>
		<path opacity="0.3" fill="#FFFFFF" d="M148.721-14.655c0,41.667-33.667,75.434-75.194,75.434
			c-41.517,0-75.185-33.767-75.185-75.434c0-41.65,33.668-75.425,75.185-75.425C115.054-90.08,148.721-56.306,148.721-14.655z"/>
		<path opacity="0.3" fill="#FFFFFF" d="M598.423,603.588c0,41.668-33.66,75.434-75.187,75.434
			c-41.525,0-75.184-33.766-75.184-75.434c0-41.648,33.658-75.422,75.184-75.422C564.763,528.166,598.423,561.939,598.423,603.588z"
			/>
		<path opacity="0.3" fill="#FFFFFF" d="M342.312,666.764c0,41.658-33.66,75.426-75.194,75.426
			c-41.518,0-75.186-33.768-75.186-75.426s33.668-75.424,75.186-75.424C308.651,591.34,342.312,625.105,342.312,666.764z"/>
		<path opacity="0.3" fill="#FFFFFF" d="M151.399,571.566c0,41.658-33.66,75.424-75.194,75.424
			c-41.519,0-75.187-33.766-75.187-75.424c0-41.66,33.668-75.428,75.187-75.428C117.739,496.139,151.399,529.906,151.399,571.566z"
			/>
		<path opacity="0.3" fill="#FFFFFF" d="M740.438,483.303c0,41.668-33.667,75.436-75.193,75.436
			c-41.518,0-75.185-33.768-75.185-75.436c0-41.66,33.667-75.426,75.185-75.426C706.771,407.877,740.438,441.643,740.438,483.303z"
			/>
		<ellipse opacity="0.3" fill="#FFFFFF" cx="-62.688" cy="201.794" rx="35.517" ry="35.631"/>
		<path opacity="0.3" fill="#FFFFFF" d="M24.412,61.794c0,19.68-15.91,35.629-35.524,35.629c-19.619,0-35.518-15.949-35.518-35.629
			s15.898-35.632,35.518-35.632C8.502,26.162,24.412,42.114,24.412,61.794z"/>
		<path opacity="0.3" fill="#FFFFFF" d="M37.138,22.594c0,19.679-15.899,35.631-35.525,35.631
			c-19.608,0-35.517-15.952-35.517-35.631c0-19.68,15.908-35.63,35.517-35.63C21.238-13.036,37.138,2.914,37.138,22.594z"/>
		<path opacity="0.3" fill="#FFFFFF" d="M72.863-27.578c0,19.678-15.899,35.63-35.524,35.63C17.731,8.052,1.822-7.9,1.822-27.578
			c0-19.68,15.909-35.631,35.517-35.631C56.964-63.209,72.863-47.258,72.863-27.578z"/>
		<path opacity="0.3" fill="#FFFFFF" d="M172.181-90.15c0,19.67-15.901,35.63-35.518,35.63c-19.617,0-35.518-15.96-35.518-35.63
			c0-19.679,15.9-35.631,35.518-35.631C156.279-125.781,172.181-109.829,172.181-90.15z"/>
		<ellipse opacity="0.3" fill="#FFFFFF" cx="239.196" cy="-163.1" rx="35.518" ry="35.629"/>
		<ellipse opacity="0.3" fill="#FFFFFF" cx="214.635" cy="-161.979" rx="35.517" ry="35.629"/>
		<path opacity="0.3" fill="#FFFFFF" d="M262.216-131.521c0,19.678-15.91,35.63-35.527,35.63c-19.615,0-35.517-15.952-35.517-35.63
			c0-19.671,15.901-35.63,35.517-35.63C246.306-167.15,262.216-151.191,262.216-131.521z"/>
		<path opacity="0.3" fill="#FFFFFF" d="M29.995,456.266c0,19.678-15.91,35.629-35.527,35.629
			c-19.615,0-35.517-15.951-35.517-35.629c0-19.68,15.901-35.631,35.517-35.631C14.085,420.635,29.995,436.586,29.995,456.266z"/>
		<ellipse opacity="0.3" fill="#FFFFFF" cx="98.969" cy="-66.779" rx="35.517" ry="35.631"/>
		<path opacity="0.3" fill="#FFFFFF" d="M351.531-84.928c0,19.68-15.91,35.63-35.525,35.63c-19.616,0-35.518-15.95-35.518-35.63
			c0-19.679,15.901-35.63,35.518-35.63C335.621-120.558,351.531-104.606,351.531-84.928z"/>
		<path opacity="0.3" fill="#FFFFFF" d="M530.161,664.141c0,19.668-15.907,35.629-35.524,35.629
			c-19.615,0-35.517-15.961-35.517-35.629c0-19.68,15.901-35.631,35.517-35.631C514.254,628.51,530.161,644.461,530.161,664.141z"/>
		<path opacity="0.3" fill="#FFFFFF" d="M640.019,598.059c0,19.67-15.899,35.633-35.524,35.633
			c-19.608,0-35.518-15.963-35.518-35.633c0-19.68,15.909-35.629,35.518-35.629C624.119,562.43,640.019,578.379,640.019,598.059z"/>
		<path opacity="0.3" fill="#FFFFFF" d="M483.716,388.16c0,19.684-15.9,35.633-35.525,35.633c-19.606,0-35.516-15.949-35.516-35.633
			c0-19.67,15.909-35.629,35.516-35.629C467.815,352.531,483.716,368.49,483.716,388.16z"/>
		<ellipse opacity="0.3" fill="#FFFFFF" cx="205.259" cy="420.424" rx="35.517" ry="35.631"/>
		<path opacity="0.3" fill="#FFFFFF" d="M662.349,323.656c0,19.67-15.901,35.629-35.526,35.629
			c-19.607,0-35.517-15.959-35.517-35.629c0-19.68,15.909-35.631,35.517-35.631C646.447,288.025,662.349,303.977,662.349,323.656z"
			/>
		<ellipse opacity="0.3" fill="#FFFFFF" cx="230.265" cy="642.631" rx="35.517" ry="35.631"/>
		<path opacity="0.3" fill="#FFFFFF" d="M394.401,574.539c0,19.67-15.901,35.629-35.526,35.629
			c-19.607,0-35.518-15.959-35.518-35.629c0-19.68,15.91-35.631,35.518-35.631C378.5,538.908,394.401,554.859,394.401,574.539z"/>
		<path opacity="0.3" fill="#FFFFFF" d="M-53.965,189.255c0,19.671-15.901,35.631-35.519,35.631
			c-19.616,0-35.517-15.96-35.517-35.631c0-19.679,15.9-35.63,35.517-35.63C-69.866,153.625-53.965,169.576-53.965,189.255z"/>
		<path opacity="0.3" fill="#FFFFFF" d="M120.428,614.404c0,19.68-15.911,35.631-35.527,35.631s-35.517-15.951-35.517-35.631
			c0-19.67,15.9-35.631,35.517-35.631S120.428,594.734,120.428,614.404z"/>
		<ellipse opacity="0.3" fill="#FFFFFF" cx="273.135" cy="689.227" rx="35.516" ry="35.629"/>
		<ellipse opacity="0.3" fill="#FFFFFF" cx="9.21" cy="499.943" rx="35.518" ry="35.631"/>
		<path opacity="0.3" fill="#FFFFFF" d="M228.939-151.681c0,19.679-15.9,35.631-35.517,35.631s-35.519-15.952-35.519-35.631
			c0-19.67,15.902-35.63,35.519-35.63S228.939-171.351,228.939-151.681z"/>
		<ellipse opacity="0.3" fill="#FFFFFF" cx="558.501" cy="-91.646" rx="35.517" ry="35.63"/>
		<path opacity="0.3" fill="#FFFFFF" d="M14.581,83.975c0,19.672-15.9,35.63-35.517,35.63c-19.614,0-35.517-15.958-35.517-35.63
			c0-19.678,15.902-35.629,35.517-35.629C-1.319,48.346,14.581,64.297,14.581,83.975z"/>
		<path opacity="0.3" fill="#FFFFFF" d="M778.014,415.271c0,19.68-15.909,35.631-35.526,35.631
			c-19.614,0-35.516-15.951-35.516-35.631s15.901-35.633,35.516-35.633C762.104,379.639,778.014,395.592,778.014,415.271z"/>
		<ellipse opacity="0.3" fill="#FFFFFF" cx="772.414" cy="297.667" rx="35.517" ry="35.632"/>
		<path opacity="0.3" fill="#FFFFFF" d="M-12.885,435.434c0,19.678-15.899,35.627-35.517,35.627
			c-19.616,0-35.519-15.949-35.519-35.627c0-19.682,15.902-35.635,35.519-35.635C-28.784,399.799-12.885,415.752-12.885,435.434z"/>
		<path opacity="0.3" fill="#FFFFFF" d="M487.284,682.059c0,19.672-15.899,35.631-35.518,35.631
			c-19.616,0-35.517-15.959-35.517-35.631c0-19.678,15.9-35.629,35.517-35.629C471.385,646.43,487.284,662.381,487.284,682.059z"/>
		<path opacity="0.3" fill="#FFFFFF" d="M223.585,650.473c0,19.68-15.899,35.631-35.525,35.631
			c-19.608,0-35.519-15.951-35.519-35.631s15.91-35.631,35.519-35.631C207.686,614.842,223.585,630.793,223.585,650.473z"/>
		<path opacity="0.3" fill="#FFFFFF" d="M62.327,187.016c0,51.275-41.439,92.837-92.551,92.837
			c-51.113,0-92.542-41.562-92.542-92.837c0-51.274,41.429-92.848,92.542-92.848C20.888,94.168,62.327,135.741,62.327,187.016z"/>
		<path opacity="0.3" fill="#FFFFFF" d="M87.029,275.198c0,51.274-41.432,92.847-92.543,92.847
			c-51.112,0-92.553-41.572-92.553-92.847c0-51.275,41.44-92.838,92.553-92.838C45.598,182.36,87.029,223.923,87.029,275.198z"/>
		<path opacity="0.3" fill="#FFFFFF" d="M384.677-31.9c0,51.274-41.432,92.837-92.544,92.837c-51.113,0-92.552-41.563-92.552-92.837
			c0-51.275,41.438-92.848,92.552-92.848C343.245-124.748,384.677-83.176,384.677-31.9z"/>
		<ellipse opacity="0.3" fill="#FFFFFF" cx="170.662" cy="459.109" rx="92.547" ry="92.838"/>
		<path opacity="0.3" fill="#FFFFFF" d="M166.741,222.558c0,51.275-41.431,92.846-92.543,92.846s-92.543-41.57-92.543-92.846
			c0-51.274,41.431-92.838,92.543-92.838S166.741,171.283,166.741,222.558z"/>
		<path opacity="0.3" fill="#FFFFFF" d="M563.307-49.823c0,51.275-41.43,92.839-92.543,92.839
			c-51.111,0-92.551-41.563-92.551-92.839c0-51.273,41.439-92.845,92.551-92.845C521.877-142.668,563.307-101.097,563.307-49.823z"
			/>
		<path opacity="0.3" fill="#FFFFFF" d="M206.045,165.22c0,51.273-41.433,92.837-92.543,92.837
			c-51.113,0-92.552-41.563-92.552-92.837c0-51.275,41.438-92.847,92.552-92.847C164.612,72.373,206.045,113.944,206.045,165.22z"/>
		<path opacity="0.3" fill="#FFFFFF" d="M298.936-78.496c0,51.275-41.44,92.838-92.551,92.838
			c-51.114,0-92.543-41.563-92.543-92.838s41.429-92.838,92.543-92.838C257.495-171.334,298.936-129.771,298.936-78.496z"/>
		<path opacity="0.3" fill="#FFFFFF" d="M152.228,3.711c0,51.275-41.43,92.847-92.543,92.847c-51.111,0-92.542-41.571-92.542-92.847
			c0-51.274,41.431-92.838,92.542-92.838C110.798-89.127,152.228-47.563,152.228,3.711z"/>
		<path opacity="0.3" fill="#FFFFFF" d="M84.797,244.065c0,51.275-41.432,92.838-92.542,92.838
			c-51.115,0-92.554-41.563-92.554-92.838c0-51.276,41.438-92.839,92.554-92.839C43.365,151.227,84.797,192.789,84.797,244.065z"/>
		<path opacity="0.3" fill="#FFFFFF" d="M123.427,431.336c0,51.275-41.43,92.836-92.543,92.836
			c-51.111,0-92.551-41.561-92.551-92.836c0-51.277,41.439-92.849,92.551-92.849C81.997,338.487,123.427,380.059,123.427,431.336z"
			/>
		<path opacity="0.3" fill="#FFFFFF" d="M338.229,623.977c0,51.277-41.431,92.838-92.544,92.838
			c-51.11,0-92.551-41.561-92.551-92.838c0-51.273,41.44-92.846,92.551-92.846C296.799,531.131,338.229,572.703,338.229,623.977z"/>
		<path opacity="0.3" fill="#FFFFFF" d="M564.869,636.961c0,51.277-41.431,92.848-92.543,92.848
			c-51.113,0-92.554-41.57-92.554-92.848c0-51.273,41.44-92.836,92.554-92.836C523.438,544.125,564.869,585.688,564.869,636.961z"/>
		<path opacity="0.3" fill="#FFFFFF" d="M733.234,526.984c0,51.273-41.439,92.836-92.554,92.836
			c-51.111,0-92.543-41.563-92.543-92.836c0-51.277,41.432-92.848,92.543-92.848C691.795,434.137,733.234,475.707,733.234,526.984z"
			/>
		<path opacity="0.3" fill="#FFFFFF" d="M825,346.433c0,51.274-41.43,92.849-92.542,92.849c-51.113,0-92.551-41.574-92.551-92.849
			c0-51.275,41.438-92.839,92.551-92.839C783.57,253.594,825,295.157,825,346.433z"/>
		<path opacity="0.3" fill="#FFFFFF" d="M781.241,118.625c0,51.275-41.439,92.838-92.551,92.838
			c-51.113,0-92.544-41.563-92.544-92.838s41.431-92.837,92.544-92.837C739.802,25.788,781.241,67.35,781.241,118.625z"/>
		<path opacity="0.3" fill="#FFFFFF" d="M666.91-28.322c0,51.274-41.431,92.847-92.544,92.847
			c-51.111,0-92.543-41.572-92.543-92.847c0-51.277,41.432-92.84,92.543-92.84C625.479-121.162,666.91-79.6,666.91-28.322z"/>
		<path opacity="0.3" fill="#FFFFFF" d="M495.204-102.015c0,51.274-41.431,92.837-92.543,92.837
			c-51.113,0-92.554-41.563-92.554-92.837c0-51.276,41.44-92.84,92.554-92.84C453.773-194.854,495.204-153.291,495.204-102.015z"/>
		<path opacity="0.3" fill="#FFFFFF" d="M298.936,136.545c0,51.275-41.44,92.838-92.551,92.838
			c-51.114,0-92.543-41.563-92.543-92.838s41.429-92.837,92.543-92.837C257.495,43.708,298.936,85.27,298.936,136.545z"/>
		<path opacity="0.3" fill="#FFFFFF" d="M298.936,391.014c0,51.277-41.44,92.84-92.551,92.84c-51.114,0-92.543-41.563-92.543-92.84
			c0-51.275,41.429-92.847,92.543-92.847C257.495,298.167,298.936,339.738,298.936,391.014z"/>
		<path opacity="0.3" fill="#FFFFFF" d="M545.444,416.104c0,51.273-41.431,92.836-92.543,92.836
			c-51.114,0-92.553-41.563-92.553-92.836c0-51.279,41.438-92.851,92.553-92.851C504.014,323.253,545.444,364.824,545.444,416.104z"
			/>
		<path opacity="0.3" fill="#FFFFFF" d="M599.033,197.472c0,51.275-41.43,92.846-92.543,92.846
			c-51.112,0-92.551-41.57-92.551-92.846s41.438-92.837,92.551-92.837C557.604,104.635,599.033,146.196,599.033,197.472z"/>
		<path opacity="0.3" fill="#FFFFFF" d="M459.705,111.459c0,51.274-41.441,92.837-92.552,92.837
			c-51.113,0-92.542-41.563-92.542-92.837c0-51.275,41.429-92.847,92.542-92.847C418.264,18.612,459.705,60.184,459.705,111.459z"/>
		<path opacity="0.3" fill="#FFFFFF" d="M273.921,16.005c0,57.942-46.821,104.913-104.579,104.913
			c-57.751,0-104.581-46.971-104.581-104.913c0-57.943,46.83-104.914,104.581-104.914C227.1-88.909,273.921-41.938,273.921,16.005z"
			/>
		<path opacity="0.3" fill="#FFFFFF" d="M209.62,102.025c0,57.935-46.822,104.905-104.579,104.905
			c-57.76,0-104.58-46.971-104.58-104.905c0-57.942,46.82-104.911,104.58-104.911C162.798-2.886,209.62,44.083,209.62,102.025z"/>
		<path opacity="0.3" fill="#FFFFFF" d="M631.185,474.762c0,57.943-46.822,104.916-104.581,104.916
			c-57.75,0-104.579-46.973-104.579-104.916c0-57.941,46.829-104.914,104.579-104.914
			C584.362,369.848,631.185,416.82,631.185,474.762z"/>
		<path opacity="0.3" fill="#FFFFFF" d="M438.266,435.344c0,57.934-46.822,104.904-104.581,104.904s-104.578-46.971-104.578-104.904
			c0-57.943,46.819-104.915,104.578-104.915S438.266,377.4,438.266,435.344z"/>
		<ellipse opacity="0.3" fill="#FFFFFF" cx="405.138" cy="338.565" rx="104.579" ry="104.917"/>
		<ellipse opacity="0.3" fill="#FFFFFF" cx="387.274" cy="1.672" rx="104.58" ry="104.913"/>
		<path opacity="0.3" fill="#FFFFFF" d="M638.335,137.866c0,57.934-46.819,104.904-104.579,104.904
			c-57.759,0-104.58-46.971-104.58-104.904c0-57.943,46.821-104.913,104.58-104.913C591.516,32.953,638.335,79.923,638.335,137.866z
			"/>
		<path opacity="0.3" fill="#FFFFFF" d="M408.347-78.074c0,57.941-46.818,104.91-104.579,104.91
			c-57.759,0-104.579-46.969-104.579-104.91c0-57.943,46.82-104.914,104.579-104.914
			C361.528-182.988,408.347-136.018,408.347-78.074z"/>
		<path opacity="0.3" fill="#FFFFFF" d="M595.458-50.137c0,57.943-46.82,104.913-104.581,104.913
			c-57.75,0-104.579-46.97-104.579-104.913S433.127-155.05,490.877-155.05C548.638-155.05,595.458-108.08,595.458-50.137z"/>
		<path opacity="0.3" fill="#FFFFFF" d="M802.671,198.793c0,57.943-46.82,104.914-104.579,104.914
			c-57.75,0-104.579-46.971-104.579-104.914S640.342,93.88,698.092,93.88C755.851,93.88,802.671,140.85,802.671,198.793z"/>
		<path opacity="0.3" fill="#FFFFFF" d="M496.547,610.73c0,57.943-46.82,104.912-104.578,104.912
			c-57.761,0-104.581-46.969-104.581-104.912c0-57.945,46.82-104.914,104.581-104.914
			C449.727,505.816,496.547,552.785,496.547,610.73z"/>
		<path opacity="0.3" fill="#FFFFFF" d="M278.387,566.385c0,57.934-46.821,104.904-104.58,104.904
			c-57.75,0-104.579-46.971-104.579-104.904c0-57.941,46.829-104.914,104.579-104.914
			C231.565,461.471,278.387,508.443,278.387,566.385z"/>
		<ellipse opacity="0.3" fill="#FFFFFF" cx="22.197" cy="145.479" rx="104.58" ry="104.913"/>
		<path opacity="0.3" fill="#FFFFFF" d="M96.859,383.148c0,57.936-46.821,104.906-104.581,104.906
			c-57.759,0-104.578-46.971-104.578-104.906c0-57.944,46.819-104.914,104.578-104.914
			C50.038,278.234,96.859,325.204,96.859,383.148z"/>
		<path opacity="0.3" fill="#FFFFFF" d="M300.497,16.231c0,75.758-61.222,137.167-136.739,137.167
			c-75.509,0-136.729-61.409-136.729-137.167s61.221-137.166,136.729-137.166C239.275-120.935,300.497-59.526,300.497,16.231z"/>
		<path opacity="0.3" fill="#FFFFFF" d="M241.771,123.525c0,75.757-61.213,137.165-136.729,137.165
			c-75.519,0-136.739-61.408-136.739-137.165c0-75.759,61.221-137.166,136.739-137.166
			C180.558-13.641,241.771,47.767,241.771,123.525z"/>
		<path opacity="0.3" fill="#FFFFFF" d="M243.331,469.162c0,75.758-61.213,137.166-136.731,137.166
			c-75.507,0-136.735-61.408-136.735-137.166S31.093,331.996,106.6,331.996C182.118,331.996,243.331,393.404,243.331,469.162z"/>
		<path opacity="0.3" fill="#FFFFFF" d="M498.999,266.886c0,75.758-61.214,137.168-136.73,137.168
			c-75.509,0-136.739-61.41-136.739-137.168S286.76,129.72,362.269,129.72C437.785,129.72,498.999,191.128,498.999,266.886z"/>
		<path opacity="0.3" fill="#FFFFFF" d="M667.582,522.029c0,75.75-61.213,137.166-136.73,137.166
			c-75.507,0-136.738-61.416-136.738-137.166c0-75.758,61.231-137.176,136.738-137.176
			C606.369,384.854,667.582,446.271,667.582,522.029z"/>
		<path opacity="0.3" fill="#FFFFFF" d="M745.515,291.98c0,75.749-61.221,137.168-136.738,137.168
			c-75.508,0-136.73-61.419-136.73-137.168c0-75.757,61.223-137.175,136.73-137.175C684.294,154.806,745.515,216.224,745.515,291.98
			z"/>
		<path opacity="0.3" fill="#FFFFFF" d="M502.574,73.352c0,75.758-61.222,137.167-136.738,137.167
			c-75.509,0-136.729-61.409-136.729-137.167S290.327-63.813,365.836-63.813C441.353-63.813,502.574-2.406,502.574,73.352z"/>
		<path opacity="0.3" fill="#FFFFFF" d="M313.225,12.427c0,75.749-61.214,137.164-136.73,137.164
			c-75.519,0-136.739-61.415-136.739-137.164c0-75.76,61.221-137.175,136.739-137.175
			C252.011-124.748,313.225-63.333,313.225,12.427z"/>
		<path opacity="0.3" fill="#FFFFFF" d="M391.82,184.461c0,75.748-61.214,137.166-136.73,137.166
			c-75.509,0-136.739-61.418-136.739-137.166c0-75.759,61.23-137.175,136.739-137.175C330.606,47.286,391.82,108.702,391.82,184.461
			z"/>
		<path opacity="0.3" fill="#FFFFFF" d="M352.524,238.22c0,75.749-61.221,137.167-136.739,137.167
			c-75.507,0-136.728-61.418-136.728-137.167c0-75.758,61.221-137.174,136.728-137.174
			C291.304,101.046,352.524,162.462,352.524,238.22z"/>
		<path opacity="0.3" fill="#FFFFFF" d="M270.354,277.639c0,75.759-61.222,137.17-136.738,137.17
			c-75.509,0-136.73-61.411-136.73-137.17c0-75.757,61.222-137.165,136.73-137.165C209.132,140.474,270.354,201.882,270.354,277.639
			z"/>
		<path opacity="0.3" fill="#FFFFFF" d="M259.634,334.986c0,75.752-61.213,137.168-136.73,137.168S-13.836,410.738-13.836,334.986
			c0-75.757,61.222-137.174,136.739-137.174S259.634,259.229,259.634,334.986z"/>
		<path opacity="0.3" fill="#FFFFFF" d="M772.755,391.434c0,75.76-61.223,137.168-136.739,137.168
			c-75.509,0-136.73-61.408-136.73-137.168c0-75.757,61.222-137.165,136.73-137.165
			C711.532,254.269,772.755,315.677,772.755,391.434z"/>
		<path opacity="0.3" fill="#FFFFFF" d="M459.705,528.523c0,75.758-61.222,137.164-136.739,137.164
			c-75.508,0-136.729-61.406-136.729-137.164c0-75.76,61.222-137.168,136.729-137.168
			C398.483,391.355,459.705,452.764,459.705,528.523z"/>
		<path opacity="0.3" fill="#FFFFFF" d="M732.117,66.186c0,75.75-61.222,137.165-136.739,137.165
			c-75.508,0-136.73-61.415-136.73-137.165c0-75.757,61.223-137.174,136.73-137.174C670.896-70.988,732.117-9.571,732.117,66.186z"
			/>
		<path opacity="0.3" fill="#FFFFFF" d="M541.868,180.873c0,75.757-61.213,137.165-136.731,137.165
			c-75.507,0-136.73-61.408-136.73-137.165c0-75.758,61.224-137.165,136.73-137.165C480.655,43.708,541.868,105.115,541.868,180.873
			z"/>
		<path opacity="0.3" fill="#FFFFFF" d="M252.49,123.525c0,75.757-61.222,137.165-136.738,137.165
			c-75.51,0-136.731-61.408-136.731-137.165c0-75.759,61.222-137.166,136.731-137.166C191.269-13.641,252.49,47.767,252.49,123.525z
			"/>
		<path opacity="0.3" fill="#FFFFFF" d="M427.546,320.646c0,75.759-61.213,137.169-136.73,137.169
			c-75.507,0-136.739-61.41-136.739-137.169c0-75.758,61.232-137.165,136.739-137.165
			C366.333,183.48,427.546,244.888,427.546,320.646z"/>
	</g>
</g>
</svg>
